<svg width="32" height="24" viewBox="0 0 32 24" fill="none" xmlns="http://www.w3.org/2000/svg">
<path fill-rule="evenodd" clip-rule="evenodd" d="M30.2553 2.63555C30.7522 3.13645 31.1103 3.75975 31.2938 4.44345C32.3507 8.73145 32.1065 15.5037 31.3143 19.9573C31.1308 20.6411 30.7727 21.2644 30.2758 21.7652C29.7789 22.2659 29.1605 22.6269 28.4822 22.8118C25.9989 23.4944 16.0043 23.4944 16.0043 23.4944C16.0043 23.4944 6.0097 23.4944 3.52648 22.8118C2.84816 22.6269 2.22975 22.2659 1.73285 21.7652C1.23595 21.2644 0.87789 20.6411 0.69434 19.9573C-0.36874 15.6878 -0.0773207 8.91145 0.673819 4.46415C0.857369 3.78045 1.21542 3.15715 1.71233 2.65625C2.20923 2.15545 2.82763 1.79455 3.50596 1.60955C5.98922 0.926941 15.9838 0.90625 15.9838 0.90625C15.9838 0.90625 25.9784 0.90625 28.4617 1.58886C29.14 1.77387 29.7584 2.13475 30.2553 2.63555ZM20.7648 12.2006L13.2354 16.9063V7.49465L20.7648 12.2006Z" fill="white"/>
</svg>
