<svg width="28" height="29" viewBox="0 0 28 29" fill="none" xmlns="http://www.w3.org/2000/svg">
<path d="M14.0013 0.90625C10.1991 0.90625 9.7219 0.92288 8.2286 0.99083C6.7382 1.05908 5.7208 1.29504 4.8306 1.64125C3.90983 1.99883 3.12874 2.47717 2.35057 3.25563C1.57181 4.03379 1.09347 4.81487 0.73472 5.73535C0.38763 6.62585 0.15138 7.64345 0.08429 9.13325C0.0175 10.6266 0 11.104 0 14.9062C0 18.7085 0.0169199 19.1842 0.0845799 20.6775C0.15313 22.1679 0.38909 23.1852 0.73501 24.0753C1.09289 24.9961 1.57122 25.7773 2.34969 26.5555C3.12757 27.3342 3.90867 27.8137 4.8289 28.1712C5.7196 28.5174 6.7373 28.7535 8.2274 28.8217C9.7208 28.8897 10.1976 28.9062 13.9996 28.9062C17.8021 28.9062 18.2778 28.8897 19.7711 28.8217C21.2616 28.7535 22.2801 28.5174 23.1708 28.1712C24.0913 27.8137 24.8713 27.3342 25.6491 26.5555C26.4279 25.7773 26.9062 24.9961 27.265 24.0756C27.6092 23.1852 27.8454 22.1675 27.9154 20.6777C27.9825 19.1845 28 18.7085 28 14.9062C28 11.104 27.9825 10.6269 27.9154 9.13355C27.8454 7.64315 27.6092 6.62585 27.265 5.73565C26.9062 4.81487 26.4279 4.03379 25.6491 3.25563C24.8704 2.47688 24.0916 1.99854 23.1699 1.64125C22.2774 1.29504 21.2595 1.05908 19.7691 0.99083C18.2757 0.92288 17.8003 0.90625 13.9969 0.90625H14.0013ZM12.7454 3.42917C13.1181 3.42858 13.5341 3.42917 14.0013 3.42917C17.7394 3.42917 18.1824 3.44258 19.6585 3.50967C21.0236 3.57208 21.7644 3.80017 22.2579 3.99179C22.9112 4.24554 23.377 4.54887 23.8667 5.03885C24.3568 5.52885 24.6601 5.99555 24.9144 6.64885C25.1061 7.14175 25.3344 7.88265 25.3966 9.24765C25.4636 10.7234 25.4782 11.1667 25.4782 14.903C25.4782 18.6392 25.4636 19.0827 25.3966 20.5585C25.3341 21.9235 25.1061 22.6642 24.9144 23.1572C24.6607 23.8105 24.3568 24.2757 23.8667 24.7654C23.3767 25.2554 22.9115 25.5588 22.2579 25.8125C21.765 26.005 21.0236 26.2325 19.6585 26.295C18.1827 26.3621 17.7394 26.3766 14.0013 26.3766C10.263 26.3766 9.8199 26.3621 8.3441 26.295C6.9791 26.232 6.2382 26.0039 5.7444 25.8123C5.0911 25.5585 4.6244 25.2551 4.1344 24.7652C3.64441 24.2752 3.34108 23.8097 3.08674 23.156C2.89511 22.6631 2.66674 21.9222 2.60461 20.5572C2.53753 19.0814 2.52411 18.6381 2.52411 14.8995C2.52411 11.1609 2.53753 10.7199 2.60461 9.24415C2.66703 7.87915 2.89511 7.13825 3.08674 6.64475C3.34049 5.99145 3.64441 5.52475 4.1344 5.03475C4.6244 4.54479 5.0911 4.24146 5.7444 3.98712C6.2379 3.79462 6.9791 3.56713 8.3441 3.50442C9.6356 3.44608 10.1361 3.42858 12.7454 3.42567V3.42917ZM21.4745 5.75375C20.547 5.75375 19.7945 6.50535 19.7945 7.43315C19.7945 8.36065 20.547 9.11315 21.4745 9.11315C22.402 9.11315 23.1545 8.36065 23.1545 7.43315C23.1545 6.50565 22.402 5.75315 21.4745 5.75315V5.75375ZM14.0013 7.71665C10.0308 7.71665 6.8117 10.9358 6.8117 14.9062C6.8117 18.8768 10.0308 22.0944 14.0013 22.0944C17.9718 22.0944 21.1898 18.8768 21.1898 14.9062C21.1898 10.9358 17.9715 7.71665 14.001 7.71665H14.0013ZM14.0013 10.2395C16.5785 10.2395 18.668 12.3287 18.668 14.9062C18.668 17.4834 16.5785 19.573 14.0013 19.573C11.4238 19.573 9.3346 17.4834 9.3346 14.9062C9.3346 12.3287 11.4238 10.2395 14.0013 10.2395Z" fill="white"/>
</svg>
