<svg width="28" height="24" viewBox="0 0 28 24" fill="none" xmlns="http://www.w3.org/2000/svg">
<path d="M8.8058 23.6621C19.3725 23.6621 25.1507 14.9081 25.1507 7.31715C25.1507 7.06855 25.1456 6.82105 25.1345 6.57465C26.2561 5.76375 27.2311 4.75185 28 3.59985C26.9707 4.05735 25.863 4.36545 24.701 4.50425C25.8871 3.79305 26.7977 2.66805 27.2272 1.32681C26.1173 1.98485 24.888 2.46305 23.5793 2.72125C22.531 1.60457 21.0386 0.90625 19.386 0.90625C16.2136 0.90625 13.6409 3.47895 13.6409 6.65025C13.6409 7.10105 13.6913 7.53955 13.7899 7.96005C9.0153 7.71985 4.7816 5.43385 1.94855 1.95795C1.45518 2.80695 1.1707 3.79305 1.1707 4.84535C1.1707 6.83835 2.18487 8.59795 3.72712 9.62725C2.78463 9.59805 1.89927 9.33935 1.12534 8.90875C1.12449 8.93285 1.12449 8.95635 1.12449 8.98205C1.12449 11.7641 3.10467 14.0871 5.7333 14.6136C5.2506 14.7452 4.7427 14.8157 4.2185 14.8157C3.84892 14.8157 3.48883 14.7792 3.13883 14.712C3.8702 16.9946 5.9909 18.6557 8.5054 18.7022C6.5392 20.2433 4.0623 21.1611 1.37034 21.1611C0.90721 21.1611 0.44968 21.1348 0 21.0816C2.54243 22.7112 5.5611 23.6621 8.8058 23.6621Z" fill="white"/>
</svg>
