<svg width="208" height="35" viewBox="0 0 208 35" fill="none" xmlns="http://www.w3.org/2000/svg">
<g clip-path="url(#clip0_1_209)">
<path d="M61.3714 26.7376C58.6033 26.7376 56.3594 24.5081 56.3594 21.7577V1.28062C56.3594 1.07386 56.5281 0.90625 56.7361 0.90625H60.8342C61.1309 0.90625 61.3714 1.14524 61.3714 1.44004V26.7376Z" fill="white"/>
<path fill-rule="evenodd" clip-rule="evenodd" d="M83.1831 26.2037C83.1831 26.4985 82.9426 26.7375 82.6459 26.7375H78.7444C78.4477 26.7375 78.2072 26.4985 78.2072 26.2037V24.8387C77.7384 25.5552 76.9812 26.0926 75.9716 26.4867C74.998 26.8808 74.0966 27.0599 73.3033 27.0599C71.0317 27.0599 69.0485 26.2717 67.3178 24.6595C65.587 23.0473 64.7216 20.9335 64.7216 18.3539C64.7216 15.7744 65.587 13.6964 67.3178 12.0842C69.0485 10.472 71.0317 9.64795 73.3033 9.64795C74.8899 9.64795 77.0533 10.257 78.2072 11.8692V10.54C78.2072 10.2452 78.4477 10.0062 78.7444 10.0062H82.6459C82.9426 10.0062 83.1831 10.2452 83.1831 10.54V26.2037ZM71.1759 21.2201C72.0413 21.9725 73.0149 22.3308 74.1327 22.3308C76.2961 22.3308 78.2072 20.7544 78.2072 18.3539C78.2072 15.9535 76.2961 14.3771 74.1327 14.3771C73.0149 14.3771 72.0413 14.7712 71.1759 15.5236C70.3466 16.276 69.9139 17.2075 69.9139 18.3539C69.9139 19.5004 70.3466 20.4677 71.1759 21.2201Z" fill="white"/>
<path d="M94.1521 20.3963C95.342 20.7187 95.8107 21.1128 95.8107 21.8294C95.8107 22.6534 94.9093 23.1908 93.7555 23.2266C92.6482 23.2266 91.6899 22.5849 91.3754 21.7932C91.2693 21.5259 91.0383 21.292 90.7491 21.292H87.1283C86.8273 21.292 86.5825 21.5383 86.6131 21.8358C86.7684 23.345 87.4492 24.59 88.7074 25.5196C90.1136 26.5586 91.7723 27.0601 93.6112 27.0601C95.5583 27.0601 97.2531 26.5944 98.6954 25.6987C100.174 24.803 100.895 23.5133 100.895 21.8294C100.895 20.8262 100.751 19.8947 99.2723 18.4974C98.5511 17.8167 97.5776 17.2793 96.3156 16.9569L93.467 16.2045C92.5295 15.9537 92.0247 15.5596 91.9886 14.9506C91.9526 14.1982 92.6377 13.6966 93.7555 13.6966C94.775 13.6966 95.3709 14.0239 95.5813 14.6597C95.6716 14.9325 95.8952 15.1655 96.1842 15.1655H99.8426C100.143 15.1655 100.388 14.9198 100.361 14.6223C100.214 12.9979 99.5383 11.7817 98.3348 10.9737C97.0006 10.0781 95.3781 9.6123 93.467 9.6123C91.7002 9.6123 90.1858 10.1139 88.8877 11.0812C87.5896 12.0486 86.9406 13.1234 86.9045 14.3773C86.8685 15.4163 86.9406 15.9895 87.4814 17.136C88.0584 18.2467 89.6088 19.214 91.9526 19.8231L94.1521 20.3963Z" fill="white"/>
<path d="M112.178 21.8294C112.178 21.1128 111.709 20.7187 110.519 20.3963L108.32 19.8231C105.976 19.214 104.426 18.2467 103.849 17.136C103.308 15.9895 103.236 15.4163 103.272 14.3773C103.308 13.1234 103.957 12.0486 105.255 11.0812C106.553 10.1139 108.067 9.6123 109.834 9.6123C111.745 9.6123 113.368 10.0781 114.702 10.9737C115.906 11.7817 116.581 12.9979 116.728 14.6223C116.755 14.9198 116.511 15.1655 116.21 15.1655H112.551C112.263 15.1655 112.039 14.9325 111.949 14.6597C111.738 14.0239 111.142 13.6966 110.123 13.6966C109.005 13.6966 108.32 14.1982 108.356 14.9506C108.392 15.5596 108.897 15.9537 109.834 16.2045L112.683 16.9569C113.945 17.2793 114.918 17.8167 115.64 18.4974C117.118 19.8947 117.262 20.8262 117.262 21.8294C117.262 23.5133 116.541 24.803 115.063 25.6987C113.62 26.5944 111.926 27.0601 109.978 27.0601C108.14 27.0601 106.481 26.5586 105.075 25.5196C103.817 24.59 103.136 23.345 102.98 21.8358C102.95 21.5383 103.195 21.292 103.496 21.292H107.116C107.406 21.292 107.637 21.5259 107.743 21.7932C108.057 22.5849 109.015 23.2266 110.123 23.2266C111.277 23.1908 112.178 22.6534 112.178 21.8294Z" fill="white"/>
<path d="M128.597 9.64795C126.109 9.64795 123.946 10.472 122.143 12.0842C120.34 13.6964 119.438 15.7744 119.438 18.3181C119.438 20.8618 120.34 22.9756 122.143 24.6237C123.946 26.2718 126.109 27.0958 128.597 27.0958C131.431 27.0958 133.981 25.9354 135.596 23.9374C135.782 23.7086 135.722 23.3762 135.481 23.2066L132.3 20.9689C132.05 20.7933 131.707 20.8633 131.508 21.0938C130.801 21.911 129.831 22.3308 128.597 22.3308C127.479 22.3308 126.506 21.9725 125.676 21.2201C124.847 20.4677 124.414 19.5004 124.414 18.3181C124.414 17.1716 124.847 16.2401 125.676 15.5236C126.506 14.7712 127.479 14.4129 128.597 14.4129C129.83 14.4129 130.799 14.8319 131.505 15.6474C131.706 15.8787 132.051 15.948 132.301 15.7702L135.481 13.5053C135.722 13.3337 135.779 12.9995 135.591 12.7718C133.945 10.7773 131.397 9.64795 128.597 9.64795Z" fill="white"/>
<path fill-rule="evenodd" clip-rule="evenodd" d="M156.345 26.1681C156.345 26.4629 156.104 26.7019 155.807 26.7019H151.906C151.609 26.7019 151.369 26.4629 151.369 26.1681V24.803C150.9 25.5196 150.143 26.057 149.133 26.4511C148.16 26.8452 147.258 27.0243 146.465 27.0243C144.193 27.0243 142.21 26.2361 140.479 24.6239C138.749 23.0117 137.883 20.8979 137.883 18.3183C137.883 15.7388 138.749 13.6608 140.479 12.0486C142.21 10.4363 144.193 9.6123 146.465 9.6123C148.051 9.6123 150.215 10.2214 151.369 11.8336V10.5044C151.369 10.2096 151.609 9.97058 151.906 9.97058H155.807C156.104 9.97058 156.345 10.2096 156.345 10.5044V26.1681ZM144.337 21.1845C145.203 21.9369 146.176 22.2951 147.294 22.2951C149.458 22.2951 151.369 20.7187 151.369 18.3183C151.369 15.9179 149.458 14.3415 147.294 14.3415C146.176 14.3415 145.203 14.7356 144.337 15.488C143.508 16.2403 143.075 17.1718 143.075 18.3183C143.075 19.4648 143.508 20.4321 144.337 21.1845Z" fill="white"/>
<path d="M178.442 14.4846C180.029 14.4846 181.219 15.7027 181.219 17.8165V26.2037C181.219 26.4985 181.459 26.7375 181.756 26.7375H185.657C185.954 26.7375 186.195 26.4985 186.195 26.2037V17.2433C186.195 12.2633 183.779 9.64795 179.704 9.64795C177.577 9.64795 175.882 10.6511 174.656 12.6216C173.719 10.6511 171.916 9.68378 169.248 9.68378C167.373 9.68378 165.606 10.7228 164.848 12.4425V10.54C164.848 10.2452 164.608 10.0062 164.311 10.0062H160.374C160.077 10.0062 159.836 10.2452 159.836 10.54V26.2037C159.836 26.4985 160.077 26.7375 160.374 26.7375H164.311C164.608 26.7375 164.848 26.4985 164.848 26.2037V17.8882C164.848 15.4878 166.074 14.4846 167.769 14.4846C169.32 14.4846 170.51 15.7027 170.546 17.7091V26.2037C170.546 26.4985 170.786 26.7375 171.083 26.7375H175.02C175.317 26.7375 175.558 26.4985 175.558 26.2037V17.8882C175.558 15.5952 176.711 14.4846 178.442 14.4846Z" fill="white"/>
<path fill-rule="evenodd" clip-rule="evenodd" d="M194.426 34.9063C191.713 34.9063 189.514 32.7211 189.514 30.0255V10.2903C189.514 10.1137 189.658 9.97058 189.836 9.97058H193.953C194.249 9.97058 194.49 10.2096 194.49 10.5044V12.0486C195.319 10.508 197.266 9.6123 199.43 9.6123C201.665 9.6123 203.577 10.4363 205.163 12.0486C206.786 13.6608 207.579 15.7388 207.579 18.2825C207.579 20.8979 206.786 23.0117 205.163 24.6239C203.577 26.2361 201.665 27.0601 199.43 27.0601C197.266 27.0601 195.319 26.1286 194.49 24.6597V34.8429C194.49 34.8779 194.461 34.9063 194.426 34.9063ZM198.492 14.3415C196.329 14.3415 194.598 16.0612 194.598 18.39C194.598 20.8262 196.329 22.3668 198.492 22.3668C200.656 22.3668 202.387 20.7187 202.387 18.39C202.387 15.9895 200.656 14.3415 198.492 14.3415Z" fill="white"/>
<path d="M49.4973 19.2764C49.6817 19.0436 50.017 18.9808 50.2619 19.1499L53.3989 21.3159C53.6379 21.4809 53.7022 21.8061 53.5313 22.0402C51.4208 24.9302 47.9588 26.7122 43.9712 26.7122C40.6401 26.7122 37.8529 25.5639 35.5755 23.2336C33.3321 20.9032 32.2104 18.1 32.2104 14.7902C32.2104 11.4467 33.3321 8.64347 35.5755 6.31311C37.8529 3.98276 40.6401 2.83447 43.9712 2.83447C47.8513 2.83447 51.3008 4.57652 53.4126 7.33381C53.592 7.56799 53.529 7.90051 53.2852 8.06748L50.1257 10.2307C49.8807 10.3984 49.5464 10.3348 49.3638 10.1015C48.0034 8.36395 46.2059 7.49518 43.9712 7.49518C42.0337 7.49518 40.4361 8.20441 39.1445 9.62289C37.8529 11.0076 37.207 12.7301 37.207 14.7902C37.207 16.8166 37.8529 18.5391 39.1445 19.9576C40.4361 21.3423 42.0337 22.0515 43.9712 22.0515C46.1985 22.0515 48.1652 20.9583 49.4973 19.2764Z" fill="white"/>
<path d="M22.1912 6.90634L20.8998 9.14314C21.6599 9.58261 22.322 9.83414 23.2632 9.83414V12.419C21.8505 12.419 20.7464 12.0412 19.6057 11.3812L20.8971 9.14434C18.616 7.82485 15.9677 7.06966 13.1429 7.06966C10.3176 7.06966 7.66868 7.82517 5.38725 9.14519L4.09464 6.90634C6.75629 5.3663 9.84667 4.48486 13.1429 4.48486C16.4392 4.48486 19.5296 5.3663 22.1912 6.90634Z" fill="white"/>
<path d="M19.606 11.3839C17.7048 10.2839 15.4974 9.6543 13.1429 9.6543C10.7885 9.6543 8.58106 10.2839 6.67987 11.3839L7.97247 13.6228C9.49342 12.7428 11.2594 12.2391 13.1429 12.2391C15.0259 12.2391 16.7913 12.7424 18.3119 13.6219L17.0205 15.8588C18.9217 16.9588 20.9087 17.5884 23.2632 17.5884V15.0036C21.3802 15.0036 19.8352 14.5002 18.3146 13.6207L19.606 11.3839Z" fill="white"/>
<path d="M13.1429 14.8242C14.5556 14.8242 15.8801 15.202 17.0208 15.862L15.7293 18.0988C18.0104 19.4183 20.4384 20.1735 23.2632 20.1735V22.7583C19.9669 22.7582 17.0969 21.8768 14.4353 20.3368L15.7267 18.1C14.9665 17.6605 14.0841 17.409 13.1429 17.409C12.2012 17.409 11.3182 17.6608 10.5577 18.1008L9.26511 15.862C10.4058 15.202 11.7303 14.8242 13.1429 14.8242Z" fill="white"/>
<path d="M8.52274 24.9045H8.52509C8.53096 24.9161 8.53686 24.9277 8.54281 24.9393L8.79339 25.3733C9.71324 26.8017 11.3176 27.7478 13.1429 27.7478H13.149L1.95422 8.35791C1.25999 8.90489 0.60679 9.50162 0 10.1427L8.52274 24.9045Z" fill="white"/>
</g>
<defs>
<clipPath id="clip0_1_209">
<rect width="208" height="34" fill="white" transform="translate(0 0.90625)"/>
</clipPath>
</defs>
</svg>
