<svg width="25" height="17" viewBox="0 0 25 17" fill="none" xmlns="http://www.w3.org/2000/svg">
<path fill-rule="evenodd" clip-rule="evenodd" d="M22.8351 1.77864C23.1954 2.1418 23.455 2.59369 23.588 3.08937C24.3543 6.19817 24.1772 11.1081 23.6029 14.3369C23.4699 14.8326 23.2102 15.2845 22.85 15.6476C22.4897 16.0107 22.0414 16.2723 21.5496 16.4065C19.7492 16.9013 12.5031 16.9013 12.5031 16.9013C12.5031 16.9013 5.25706 16.9013 3.45672 16.4065C2.96494 16.2723 2.51659 16.0107 2.15634 15.6476C1.79609 15.2845 1.53649 14.8326 1.40342 14.3369C0.632688 11.2416 0.843967 6.32867 1.38854 3.10438C1.52162 2.6087 1.7812 2.1568 2.14146 1.79365C2.50172 1.43057 2.95006 1.16892 3.44184 1.0348C5.24221 0.539903 12.4883 0.524902 12.4883 0.524902C12.4883 0.524902 19.7344 0.524902 21.5348 1.01979C22.0265 1.15393 22.4749 1.41556 22.8351 1.77864ZM15.9545 8.71327L10.4957 12.125V5.30149L15.9545 8.71327Z" fill="white"/>
</svg>
